# xmcd CD database file
#
# Track frame offsets:
#	150
#	3105
#	22108
#	39625
#	55755
#	78560
#	96125
#	118738
#	141253
#	158342
#	178788
#	197243
#	221695
#	240890
#
# Disc length: 3335 seconds
#
# Revision: 0
# Processed by: cddbd v1.5.2PL0 Copyright (c) Steve Scherf et al.
# Submitted via: CDex 1.70beta2
#
DISCID=b40d050e
DTITLE=和田アキ子 - わだ家
DYEAR=2008
DGENRE=Rhythmic Soul
TTITLE0=イイネ!わだ家!イイネ! by 横山剣(クレイジーケンバンド) 
TTITLE1=女王蜂のフーガ readymade mix 2008 
TTITLE2=夜明けのうた feat.一青窈
TTITLE3=かっこいいブーガルー feat.横山剣(クレイジーケンバンド) 
TTITLE4=時の波 feat.Reggae Disco Rockers
TTITLE5=素直になりたい feat.SEAMO 
TTITLE6=MOTHER’S KISS feat.東風
TTITLE7=幸せのちから
TTITLE8=たどりついたらいつも雨ふり feat.鈴木ヒロミツ(MOPS)
TTITLE9=永遠が見える場所
TTITLE10=ゴールデンタイム
TTITLE11=メリー・ジェーン feat.Sam Moore
TTITLE12=明日より昨日より
TTITLE13=女王蜂のフーガ(未発表音源初CD化)
EXTD=YEAR: 2008
EXTT0=
EXTT1=
EXTT2=
EXTT3=
EXTT4=
EXTT5=
EXTT6=
EXTT7=
EXTT8=
EXTT9=
EXTT10=
EXTT11=
EXTT12=
EXTT13=
PLAYORDER=
